<svg width="20" height="20" viewBox="0 0 20 20" fill="none" xmlns="http://www.w3.org/2000/svg">
<g clip-path="url(#clip0_249_2)">
<path fill-rule="evenodd" clip-rule="evenodd" d="M17.4009 11C17.4009 10.7 17.5009 10.4 17.5009 10C17.5009 9.6 17.5009 9.3 17.4009 9L19.5009 7.3C19.7009 7.1 19.701 6.9 19.601 6.7L17.601 3.2C17.501 3.1 17.3009 3 17.0009 3.1L14.5009 4.1C14.0009 3.7 13.4009 3.4 12.8009 3.1L12.4009 0.5C12.5009 0.2 12.2009 0 12.0009 0H8.00095C7.80095 0 7.50095 0.2 7.50095 0.4L7.10095 3.1C6.50095 3.3 6.00095 3.7 5.40095 4.1L3.00095 3.1C2.70095 3 2.50095 3.1 2.30095 3.3L0.300949 6.8C0.200949 6.9 0.300949 7.2 0.500949 7.4L2.60095 9C2.60095 9.3 2.50095 9.6 2.50095 10C2.50095 10.4 2.50095 10.7 2.60095 11L0.500949 12.7C0.300949 12.9 0.300949 13.1 0.400949 13.3L2.40095 16.8C2.50095 16.9 2.70095 17 3.00095 16.9L5.50095 15.9C6.00095 16.3 6.60095 16.6 7.20095 16.9L7.60095 19.5C7.60095 19.7 7.80095 19.9 8.10095 19.9H12.1009C12.3009 19.9 12.6009 19.7 12.6009 19.5L13.0009 16.9C13.6009 16.6 14.2009 16.3 14.7009 15.9L17.201 16.9C17.401 17 17.7009 16.9 17.8009 16.7L19.8009 13.2C19.9009 13 19.901 12.7 19.701 12.6L17.4009 11ZM10.0009 13.5C8.10095 13.5 6.50095 11.9 6.50095 10C6.50095 8.1 8.10095 6.5 10.0009 6.5C11.9009 6.5 13.5009 8.1 13.5009 10C13.5009 11.9 11.9009 13.5 10.0009 13.5Z" fill="white"/>
</g>
<defs>
<clipPath id="clip0_249_2">
<rect width="20" height="20" fill="white"/>
</clipPath>
</defs>
</svg>
