<?xml version="1.0" encoding="utf-8"?>
<!DOCTYPE svg PUBLIC "-//W3C//DTD SVG 1.0//EN" "http://www.w3.org/TR/2001/REC-SVG-20010904/DTD/svg10.dtd">
<svg version="1.0" xmlns="http://www.w3.org/2000/svg" width="128px" height="128px" viewBox="0 0 128 128" preserveAspectRatio="xMidYMid meet">
 <g fill="#27214d">
  <path d="M57.8 111.8 c-1.2 -3.5 -2.8 -5.2 -9.8 -10.3 -5.7 -4 -10.3 -8.5 -14.1 -13.4 -6.8 -8.9 -14.3 -23.3 -14.3 -27.6 0 -3.2 5.5 -16.1 7.8 -17.9 0.7 -0.6 2.1 -3.3 3.1 -6.1 3.4 -9.3 25.3 -28.1 28.7 -24.7 0.8 0.8 -0.3 3.3 -4 8.9 -11 16.8 -13.5 27.4 -9.2 38.3 1.6 4.1 2 6.5 1.5 10.2 -0.6 4.4 -0.5 4.8 1.8 5.3 1.5 0.4 3.7 2.5 5.3 4.8 5.6 8.6 11.6 15.7 13.2 15.7 2.5 0 10.5 -9.2 15.6 -17.9 4.9 -8.3 9.6 -20.7 9.6 -25.2 0 -5.2 -9.4 -15.2 -20.8 -22.2 -6.8 -4.1 -7.7 -5.6 -3.4 -5.8 21.5 -0.9 23.5 -1.2 25 -2.9 1 -1.3 1.8 -0.8 5.8 3.4 6.2 6.7 12.9 16.3 14.4 20.8 1.2 3.1 1.1 4.2 -0.3 8 -3.1 8.1 -10 18 -14.7 21.2 -4.8 3.3 -8.1 8.9 -15.6 26.9 -4.2 9.9 -6.3 12.1 -13.5 13.6 -9.2 2 -10.6 1.6 -12.1 -3.1z"/>
 </g>
 <g fill="#4b4963">
  <path d="M65.6 81.3 c-0.8 -6.5 -3.5 -13.2 -7.1 -17.5 -3.3 -4 -3.2 -8.3 0.5 -16.8 2.1 -4.7 3 -8.4 3 -12 0 -3.9 0.3 -5.1 1.4 -4.8 2.1 0.5 16.4 18.6 17.7 22.5 0.9 2.8 0.7 4.3 -1.4 9.5 -1.3 3.5 -3.4 9 -4.6 12.4 -2.8 7.6 -5.7 12.4 -7.4 12.4 -1 0 -1.6 -1.8 -2.1 -5.7z"/>
 </g>
</svg>